<?xml version="1.0" encoding="UTF-8" standalone="no"?>
<!DOCTYPE svg PUBLIC "-//W3C//DTD SVG 20010904//EN"
              "http://www.w3.org/TR/2001/REC-SVG-20010904/DTD/svg10.dtd">

<svg xmlns="http://www.w3.org/2000/svg"
     width="5.68889in" height="5.68889in"
     viewBox="0 0 512 512">
  <path id="Imported Path"
        fill="none" stroke="black" stroke-width="1"
        d="M 321.30,66.10
           C 312.00,51.20 304.60,47.00 304.60,47.00
             305.60,46.70 306.60,46.50 307.70,46.40
             315.90,49.40 327.30,58.40 332.00,67.80
             337.00,78.10 339.70,95.90 339.70,95.90
             339.70,95.90 335.40,102.10 335.40,102.10
             335.40,102.10 330.70,81.10 321.30,66.10 Z
           M 335.40,102.10
           C 335.40,102.10 339.70,95.90 339.70,95.90
             339.80,89.90 339.30,83.90 338.40,78.00
             337.00,70.50 336.10,66.20 332.20,61.10
             328.30,56.00 321.40,50.00 318.20,48.40
             315.00,46.80 309.20,45.60 304.60,47.00
             304.60,47.00 312.00,51.30 321.30,66.20
             330.70,81.10 335.40,102.10 335.40,102.10 Z
           M 334.20,84.50
           C 336.10,84.50 337.70,83.70 337.70,82.60
             337.70,81.50 336.10,80.70 334.20,80.70
             332.30,80.70 330.70,81.50 330.70,82.60
             330.70,83.70 332.30,84.50 334.20,84.50 Z
           M 334.20,85.00
           C 336.70,85.00 338.70,83.90 338.70,82.60
             338.70,81.30 336.60,80.20 334.20,80.20
             331.80,80.20 329.70,81.30 329.70,82.60
             329.70,83.90 331.70,85.00 334.20,85.00 Z
           M 330.00,84.30
           C 330.00,84.30 334.80,83.20 334.80,83.20
             334.80,83.20 338.70,82.80 338.70,82.80
             338.70,82.80 339.50,88.70 339.50,88.70
             339.70,92.80 339.70,95.90 339.70,95.90
             339.70,95.90 335.40,102.10 335.40,102.10
             334.00,96.10 332.20,90.10 330.00,84.30 Z
           M 327.40,67.70
           C 330.20,67.70 332.40,66.50 332.40,65.00
             332.40,63.50 330.20,62.30 327.40,62.30
             324.60,62.30 322.40,63.50 322.40,65.00
             322.40,66.50 324.70,67.70 327.40,67.70 Z
           M 327.40,68.50
           C 331.00,68.50 333.90,67.00 333.90,65.00
             333.90,63.10 331.00,61.50 327.40,61.50
             323.80,61.50 321.00,63.10 321.00,65.00
             321.00,66.90 323.90,68.50 327.40,68.50 Z
           M 329.40,82.80
           C 327.30,77.00 324.50,71.50 321.30,66.20
             321.30,66.20 321.20,66.10 321.20,66.10
             321.20,66.10 330.60,64.60 330.60,64.60
             330.60,64.60 333.80,64.60 333.80,64.60
             333.80,64.60 336.40,82.60 336.40,82.60
             336.40,82.60 329.40,82.80 329.40,82.80 Z
           M 319.90,57.30
           C 322.30,57.30 324.30,56.30 324.30,54.90
             324.30,53.60 322.30,52.50 319.90,52.50
             317.50,52.50 315.60,53.50 315.60,54.80
             315.60,56.20 317.50,57.30 319.90,57.30 Z
           M 319.90,58.00
           C 323.00,58.00 325.50,56.60 325.50,55.00
             325.50,53.40 323.00,52.00 319.90,52.00
             316.80,52.00 314.30,53.40 314.30,55.00
             314.30,56.60 316.80,58.00 319.90,58.00 Z
           M 323.10,69.10
           C 322.50,68.10 322.00,67.10 321.30,66.20
             319.10,62.70 316.70,59.30 314.10,56.10
             314.10,56.10 322.50,55.40 322.50,55.40
             322.50,55.40 325.60,54.60 325.60,54.60
             325.60,54.60 328.10,69.10 328.10,69.10
             328.10,69.10 325.70,69.10 323.10,69.10 Z
           M 335.40,102.10
           C 335.40,102.10 339.70,95.90 339.70,95.90
             339.80,89.90 339.30,83.90 338.40,78.00
             337.00,70.50 336.10,66.20 332.20,61.10
             328.30,56.00 321.40,50.00 318.20,48.40
             315.00,46.80 309.20,45.60 304.60,47.00
             304.60,47.00 312.00,51.30 321.30,66.20
             330.70,81.10 335.40,102.10 335.40,102.10 Z
           M 339.90,95.20
           C 339.90,89.50 339.50,83.70 338.60,78.00
             337.20,70.60 336.30,66.10 332.40,61.00
             328.70,56.00 321.70,49.90 318.30,48.20
             314.90,46.50 309.00,45.40 304.50,46.80
             304.50,46.80 304.00,47.00 304.00,47.00
             304.00,47.00 304.50,47.30 304.50,47.30
             304.60,47.30 311.90,51.70 321.20,66.40
             330.50,81.10 335.20,102.10 335.20,102.30
             335.20,102.30 335.30,102.90 335.30,102.90
             335.30,102.90 339.90,96.10 339.90,96.10
             339.90,96.10 339.90,95.20 339.90,95.20 Z
           M 190.80,66.10
           C 200.20,51.20 207.50,46.90 207.50,46.90
             206.50,46.60 205.50,46.40 204.40,46.30
             196.20,49.30 184.80,58.30 180.10,67.70
             175.10,77.90 172.40,95.80 172.40,95.80
             172.40,95.80 176.70,102.00 176.70,102.00
             176.70,102.10 181.40,81.10 190.80,66.10 Z
           M 176.80,102.10
           C 176.80,102.10 172.50,95.90 172.50,95.90
             172.40,89.90 172.90,83.90 173.80,78.00
             175.20,70.50 176.10,66.20 180.00,61.10
             183.80,56.00 190.80,50.00 194.00,48.40
             197.20,46.80 203.00,45.60 207.60,47.00
             207.60,47.00 200.20,51.30 190.90,66.20
             181.60,81.10 176.80,102.10 176.80,102.10 Z
           M 178.00,84.50
           C 176.10,84.50 174.50,83.70 174.50,82.60
             174.50,81.50 176.10,80.70 178.00,80.70
             179.90,80.70 181.50,81.50 181.50,82.60
             181.50,83.70 179.90,84.50 178.00,84.50 Z
           M 178.00,85.00
           C 175.50,85.00 173.50,83.90 173.50,82.60
             173.50,81.30 175.60,80.20 178.00,80.20
             180.40,80.20 182.50,81.30 182.50,82.60
             182.50,83.90 180.40,85.00 178.00,85.00 Z
           M 182.20,84.30
           C 182.20,84.30 177.40,83.20 177.40,83.20
             177.40,83.20 173.50,82.80 173.50,82.80
             173.50,82.80 172.70,88.70 172.70,88.70
             172.50,92.80 172.50,95.90 172.50,95.90
             172.50,95.90 176.80,102.10 176.80,102.10
             178.20,96.10 180.00,90.10 182.20,84.30 Z
           M 184.70,67.70
           C 181.90,67.70 179.70,66.50 179.70,65.00
             179.70,63.50 181.90,62.30 184.70,62.30
             187.50,62.30 189.70,63.50 189.70,65.00
             189.70,66.50 187.40,67.70 184.70,67.70 Z
           M 184.70,68.50
           C 181.10,68.50 178.20,67.00 178.20,65.00
             178.20,63.10 181.10,61.50 184.70,61.50
             188.30,61.50 191.20,63.00 191.20,65.00
             191.10,66.90 188.20,68.50 184.70,68.50 Z
           M 182.70,82.80
           C 184.90,77.00 187.60,71.50 190.80,66.20
             190.80,66.20 190.80,66.10 190.80,66.10
             190.80,66.10 181.40,64.60 181.40,64.60
             181.40,64.60 178.20,64.60 178.20,64.60
             178.20,64.60 175.60,82.60 175.60,82.60
             175.60,82.60 182.70,82.80 182.70,82.80 Z
           M 192.20,57.30
           C 189.80,57.30 187.80,56.30 187.80,54.90
             187.80,53.60 189.70,52.50 192.20,52.50
             194.60,52.50 196.50,53.50 196.50,54.80
             196.60,56.20 194.60,57.30 192.20,57.30 Z
           M 192.20,58.00
           C 189.10,58.00 186.60,56.60 186.60,55.00
             186.60,53.40 189.10,52.00 192.20,52.00
             195.30,52.00 197.80,53.40 197.80,55.00
             197.80,56.60 195.30,58.00 192.20,58.00 Z
           M 189.10,69.10
           C 189.70,68.10 190.20,67.10 190.80,66.20
             193.00,62.70 195.40,59.30 198.00,56.10
             198.00,56.10 189.60,55.40 189.60,55.40
             189.60,55.40 186.50,54.60 186.50,54.60
             186.50,54.60 184.10,69.10 184.10,69.10
             184.10,69.10 186.50,69.10 189.10,69.10 Z
           M 176.80,102.10
           C 176.80,102.10 172.50,95.90 172.50,95.90
             172.40,89.90 172.90,83.90 173.80,78.00
             175.20,70.50 176.10,66.20 180.00,61.10
             183.80,56.00 190.80,50.00 194.00,48.40
             197.20,46.80 203.00,45.60 207.60,47.00
             207.60,47.00 200.20,51.30 190.90,66.20
             181.60,81.10 176.80,102.10 176.80,102.10 Z
           M 172.20,95.20
           C 172.20,89.50 172.60,83.70 173.50,78.00
             174.90,70.60 175.80,66.10 179.70,61.00
             183.40,56.00 190.40,49.90 193.80,48.20
             197.20,46.50 203.00,45.40 207.60,46.80
             207.60,46.80 208.10,47.00 208.10,47.00
             208.10,47.00 207.60,47.30 207.60,47.30
             207.50,47.30 200.20,51.70 190.90,66.40
             181.70,81.10 176.90,102.10 176.90,102.30
             176.90,102.30 176.80,102.90 176.80,102.90
             176.80,102.90 172.20,96.10 172.20,96.10
             172.20,96.10 172.20,95.20 172.20,95.20 Z
           M 323.00,458.20
           C 323.00,458.20 328.90,454.20 331.40,448.00
             334.40,439.90 336.40,431.50 337.40,422.90
             338.00,416.20 338.90,413.20 339.50,413.00
             340.10,412.90 340.90,418.40 341.10,426.00
             341.30,433.60 339.20,448.50 334.70,454.90
             330.30,461.30 321.90,465.00 321.90,465.00
             321.90,465.00 322.90,460.70 322.90,460.70
             322.90,460.70 323.00,458.20 323.00,458.20 Z
           M 322.90,461.00
           C 322.90,461.00 322.90,460.80 322.90,460.80
             322.90,460.80 323.00,458.20 323.00,458.20
             323.00,458.20 328.90,454.20 331.40,448.00
             334.40,439.90 336.40,431.50 337.40,422.90
             337.90,416.80 338.70,413.70 339.40,413.10
             339.10,419.50 338.50,431.70 337.50,436.00
             336.20,441.60 335.10,447.20 331.40,452.50
             329.00,455.80 326.20,458.70 322.90,461.00 Z
           M 323.00,458.20
           C 323.00,458.20 328.90,454.20 331.40,448.00
             334.40,439.90 336.40,431.50 337.40,422.90
             338.00,416.20 338.90,413.20 339.50,413.00
             340.10,412.90 340.90,418.40 341.10,426.00
             341.30,433.60 339.20,448.50 334.70,454.90
             330.30,461.30 321.90,465.00 321.90,465.00
             321.90,465.00 322.90,460.70 322.90,460.70
             322.90,460.70 323.00,458.20 323.00,458.20 Z
           M 341.40,427.20
           C 341.40,426.80 341.40,426.40 341.40,426.10
             341.20,420.20 340.70,413.60 339.80,412.90
             339.70,412.80 339.60,412.80 339.50,412.80
             338.10,413.10 337.40,420.60 337.20,422.90
             336.20,431.50 334.20,439.90 331.20,448.00
             328.70,454.10 322.90,458.10 322.90,458.10
             322.90,458.10 322.80,458.20 322.80,458.20
             322.80,458.20 322.70,460.90 322.70,460.90
             322.70,460.90 321.60,465.60 321.60,465.60
             321.60,465.60 322.10,465.40 322.10,465.40
             322.20,465.40 330.60,461.60 335.00,455.10
             339.40,448.60 341.40,434.60 341.40,427.20
             341.40,427.20 341.40,427.20 341.40,427.20 Z
           M 189.20,458.20
           C 189.20,458.20 183.30,454.20 180.80,448.00
             177.80,439.90 175.80,431.50 174.80,422.90
             174.20,416.20 173.30,413.20 172.70,413.00
             172.10,412.90 171.30,418.40 171.10,426.00
             170.90,433.60 173.00,448.50 177.50,454.90
             181.90,461.30 190.30,465.00 190.30,465.00
             190.30,465.00 189.30,460.70 189.30,460.70
             189.30,460.70 189.30,458.20 189.30,458.20
             189.30,458.20 189.20,458.20 189.20,458.20 Z
           M 189.30,461.00
           C 189.30,461.00 189.20,460.80 189.20,460.80
             189.20,460.80 189.20,458.20 189.20,458.20
             189.20,458.20 183.30,454.20 180.80,448.00
             177.80,439.90 175.80,431.50 174.80,422.90
             174.30,416.80 173.50,413.70 172.80,413.10
             173.10,419.50 173.70,431.70 174.70,436.00
             176.00,441.60 177.10,447.20 180.80,452.50
             183.10,455.80 186.00,458.70 189.30,461.00 Z
           M 189.20,458.20
           C 189.20,458.20 183.30,454.20 180.80,448.00
             177.80,439.90 175.80,431.50 174.80,422.90
             174.20,416.20 173.30,413.20 172.70,413.00
             172.10,412.90 171.30,418.40 171.10,426.00
             170.90,433.60 173.00,448.50 177.50,454.90
             181.90,461.30 190.30,465.00 190.30,465.00
             190.30,465.00 189.30,460.70 189.30,460.70
             189.30,460.70 189.30,458.20 189.30,458.20
             189.30,458.20 189.20,458.20 189.20,458.20 Z
           M 170.80,427.20
           C 170.80,426.80 170.80,426.40 170.80,426.10
             171.00,420.20 171.50,413.60 172.40,412.90
             172.50,412.80 172.60,412.80 172.70,412.80
             174.10,413.10 174.80,420.60 175.00,422.90
             176.00,431.50 178.00,439.90 181.00,448.00
             183.50,454.10 189.30,458.10 189.30,458.10
             189.30,458.10 189.40,458.20 189.40,458.20
             189.40,458.20 189.50,460.90 189.50,460.90
             189.50,460.90 190.60,465.60 190.60,465.60
             190.60,465.60 190.10,465.40 190.10,465.40
             190.00,465.40 181.60,461.60 177.20,455.10
             172.80,448.60 170.70,434.60 170.80,427.20
             170.80,427.20 170.80,427.20 170.80,427.20 Z
           M 256.30,34.10
           C 239.80,34.10 220.10,35.70 210.60,36.60
             210.60,36.60 210.60,36.60 210.60,36.60
             215.60,35.40 220.90,34.40 226.20,33.60
             235.40,33.00 246.50,32.40 256.40,32.40
             269.70,32.50 283.10,33.60 296.20,35.70
             296.20,35.70 296.20,35.80 296.20,35.80
             296.20,35.80 296.60,36.20 296.60,36.20
             297.20,36.70 297.80,37.30 298.40,37.90
             284.50,35.50 270.40,34.30 256.30,34.10 Z
           M 256.30,36.80
           C 237.80,36.80 215.30,38.80 207.60,39.50
             208.20,38.90 208.80,38.20 209.50,37.60
             218.70,36.70 239.20,35.10 256.40,35.10
             270.90,35.30 285.30,36.50 299.60,38.90
             300.30,39.70 301.00,40.40 301.40,41.00
             286.50,38.40 271.40,37.00 256.30,36.80 Z
           M 291.60,42.10
           C 279.90,40.50 268.10,39.60 256.30,39.50
             239.20,39.50 218.80,41.20 209.70,42.00
             208.20,41.90 206.90,41.80 205.90,41.60
             206.20,41.20 206.40,40.90 206.70,40.60
             213.80,39.90 237.10,37.80 256.30,37.80
             271.20,38.00 286.10,39.30 300.80,41.80
             297.80,42.10 294.70,42.20 291.60,42.10 Z
           M 253.90,40.70
           C 265.30,40.70 278.20,40.80 285.70,41.70
             291.10,42.40 296.50,42.40 301.80,41.70
             300.30,39.70 298.50,37.80 296.60,36.10
             296.60,36.10 296.20,35.70 296.20,35.70
             296.20,35.70 296.10,35.20 296.10,35.20
             283.00,32.60 269.70,31.20 256.40,30.90
             247.80,30.90 226.90,32.50 210.70,36.50
             209.00,38.00 207.40,39.70 206.00,41.60
             211.40,42.30 216.80,42.30 222.10,41.60
             229.60,40.80 242.40,40.70 253.90,40.70 Z
           M 303.40,43.10
           C 305.70,42.60 301.10,38.00 298.90,35.80
             284.90,32.90 270.70,31.30 256.40,31.00
             247.10,31.00 223.90,32.80 207.30,37.40
             205.10,39.70 202.60,42.60 204.40,43.10
             210.30,44.10 216.40,44.20 222.30,43.40
             229.90,42.50 243.00,42.40 253.90,42.40
             264.80,42.40 277.90,42.50 285.50,43.40
             291.40,44.20 297.40,44.10 303.40,43.10 Z
           M 316.70,236.80
           C 316.70,236.80 312.90,266.90 312.10,291.90
             311.30,316.90 310.40,405.00 310.40,405.00
             310.40,405.00 305.80,405.00 305.80,405.00
             305.80,405.00 306.60,312.30 307.60,291.90
             308.60,271.50 312.20,235.70 312.20,235.70
             312.20,235.70 316.70,236.80 316.70,236.80 Z
           M 194.50,236.80
           C 194.50,236.80 198.30,266.90 199.10,291.90
             199.90,316.90 200.90,405.00 200.90,405.00
             200.90,405.00 205.50,405.00 205.50,405.00
             205.50,405.00 204.70,312.30 203.70,291.90
             202.80,271.50 199.10,235.70 199.10,235.70
             199.10,235.70 194.50,236.80 194.50,236.80 Z
           M 192.80,417.00
           C 192.80,417.00 192.80,415.10 192.80,415.10
             192.80,415.00 194.20,410.10 197.90,409.80
             201.60,409.50 310.20,409.80 311.20,409.80
             311.40,409.80 315.10,409.60 317.40,411.70
             318.50,412.70 319.10,414.20 319.00,415.70
             319.00,415.70 318.70,415.70 318.70,415.70
             318.80,414.30 318.20,412.90 317.20,411.90
             315.00,409.80 311.20,410.10 311.20,410.10
             310.10,410.10 201.50,409.80 197.90,410.10
             194.40,410.30 193.10,414.90 193.00,415.20
             193.00,415.20 193.00,417.00 193.00,417.00
             193.00,417.00 192.80,417.00 192.80,417.00 Z
           M 328.60,145.70
           C 328.60,145.70 334.30,141.50 334.30,141.50
             334.30,141.50 337.70,140.20 338.00,130.50
             338.20,124.50 337.10,117.00 336.30,111.10
             335.80,108.10 335.40,105.20 335.30,102.20
             335.30,102.20 335.60,102.20 335.60,102.20
             335.80,105.20 336.10,108.20 336.60,111.10
             337.50,117.10 338.50,124.40 338.30,130.60
             338.00,140.20 334.70,141.70 334.40,141.80
             334.40,141.80 328.80,146.00 328.80,146.00
             328.80,146.00 328.60,145.70 328.60,145.70 Z
           M 337.30,173.70
           C 337.30,173.70 348.70,168.20 348.70,168.20
             348.70,168.20 348.80,168.40 348.80,168.40
             348.80,168.40 337.40,174.00 337.40,174.00
             337.40,174.00 337.30,173.70 337.30,173.70 Z
           M 335.60,281.40
           C 335.60,281.40 348.30,278.90 348.30,278.90
             348.30,278.90 348.40,279.10 348.40,279.10
             348.40,279.10 335.60,281.70 335.60,281.70
             335.60,281.70 335.60,281.40 335.60,281.40 Z
           M 329.90,375.80
           C 329.90,375.80 330.10,375.70 330.10,375.70
             330.10,375.80 334.70,387.60 341.10,387.10
             344.70,382.40 347.20,377.00 348.50,371.30
             348.50,371.30 348.80,371.40 348.80,371.40
             347.50,377.20 345.00,382.70 341.30,387.40
             341.30,387.40 341.30,387.40 341.30,387.40
             341.30,387.40 341.20,387.40 341.20,387.40
             334.60,387.90 330.10,376.30 329.90,375.80 Z
           M 317.20,469.60
           C 317.20,469.60 318.80,466.10 318.80,466.10
             318.80,466.10 318.90,466.10 318.90,466.10
             318.90,466.10 322.10,465.30 322.10,465.30
             322.30,464.70 323.50,460.40 323.00,458.30
             322.50,456.20 321.20,451.50 321.10,450.90
             321.10,450.90 319.50,449.80 319.50,449.80
             319.50,449.80 319.60,449.60 319.60,449.60
             319.60,449.60 321.30,450.70 321.30,450.70
             321.30,450.70 321.30,450.80 321.30,450.80
             321.30,450.90 322.60,455.90 323.20,458.20
             323.80,460.50 322.30,465.20 322.30,465.40
             322.30,465.40 322.30,465.50 322.30,465.50
             322.30,465.50 322.20,465.50 322.20,465.50
             322.20,465.50 319.00,466.30 319.00,466.30
             319.00,466.30 317.50,469.60 317.50,469.60
             317.50,469.60 317.90,471.80 317.90,471.80
             317.90,471.80 317.60,471.80 317.60,471.80
             317.60,471.80 317.20,469.60 317.20,469.60 Z
           M 173.90,128.90
           C 174.10,122.90 174.60,117.00 175.60,111.10
             176.10,108.20 176.50,105.20 176.60,102.20
             176.60,102.20 176.90,102.20 176.90,102.20
             176.70,105.20 176.40,108.20 175.90,111.10
             175.00,117.10 174.00,124.40 174.20,130.50
             174.50,140.20 177.90,141.50 177.90,141.50
             177.90,141.50 177.90,141.50 177.90,141.50
             177.90,141.50 183.50,145.70 183.50,145.70
             183.50,145.70 183.30,145.90 183.30,145.90
             183.30,145.90 177.70,141.70 177.70,141.70
             177.40,141.60 174.20,140.10 173.80,130.50
             173.90,130.00 173.90,129.40 173.90,128.90 Z
           M 164.05,168.39
           C 164.05,168.39 174.20,173.59 174.20,173.59
             174.20,173.59 174.06,173.86 174.06,173.86
             174.06,173.86 163.92,168.66 163.92,168.66
             163.92,168.66 164.05,168.39 164.05,168.39 Z
           M 164.30,279.10
           C 164.30,279.10 164.30,278.90 164.30,278.90
             164.30,278.90 176.60,281.40 176.60,281.40
             176.60,281.40 176.50,281.70 176.50,281.70
             176.50,281.70 164.30,279.10 164.30,279.10 Z
           M 164.00,371.80
           C 164.00,371.80 164.30,371.70 164.30,371.70
             165.40,377.30 167.80,382.50 171.20,387.10
             177.50,387.60 181.30,376.60 181.40,376.40
             181.40,376.40 181.60,376.50 181.60,376.50
             181.40,377.00 177.70,387.90 171.10,387.30
             171.10,387.30 171.10,387.30 171.10,387.30
             171.10,387.30 171.10,387.30 171.10,387.30
             167.50,382.80 165.10,377.50 164.00,371.80 Z
           M 188.90,459.50
           C 188.90,459.10 188.90,458.60 189.00,458.20
             189.60,455.90 190.90,450.80 190.90,450.80
             190.90,450.80 190.90,450.70 190.90,450.70
             190.90,450.70 192.60,449.60 192.60,449.60
             192.60,449.60 192.70,449.80 192.70,449.80
             192.70,449.80 191.10,450.90 191.10,450.90
             191.00,451.40 189.70,456.10 189.20,458.30
             188.70,460.50 189.90,464.70 190.10,465.30
             190.10,465.30 193.40,466.10 193.40,466.10
             193.40,466.10 195.00,469.60 195.00,469.60
             195.00,469.60 194.50,471.90 194.50,471.90
             194.50,471.90 194.20,471.90 194.20,471.90
             194.20,471.90 194.60,469.70 194.60,469.70
             194.60,469.70 193.10,466.40 193.10,466.40
             193.10,466.40 189.80,465.50 189.80,465.50
             189.80,465.50 189.80,465.40 189.80,465.40
             189.40,463.50 189.00,461.50 188.90,459.50 Z
           M 325.10,291.90
           C 324.40,313.40 323.40,335.90 322.10,356.10
             322.10,356.10 320.30,352.60 320.30,352.60
             319.90,337.60 319.50,315.20 319.50,298.20
             319.50,296.10 319.50,294.30 319.50,292.40
             319.50,292.40 325.10,291.90 325.10,291.90 Z
           M 319.80,280.70
           C 320.40,262.10 322.30,242.40 323.70,234.10
             324.40,229.80 325.70,222.90 327.10,215.60
             326.90,229.20 326.40,252.10 325.60,277.80
             325.60,277.80 319.80,280.70 319.80,280.70 Z
           M 324.90,361.50
           C 324.90,361.50 320.40,352.60 320.40,352.60
             320.00,337.60 319.60,315.20 319.60,298.20
             319.60,296.10 319.60,294.30 319.60,292.40
             319.60,292.40 334.90,290.70 334.90,290.70
             334.90,298.00 334.70,304.50 334.10,315.40
             333.60,324.70 332.40,345.60 331.20,360.70
             331.20,360.70 324.90,361.50 324.90,361.50 Z
           M 320.60,360.80
           C 320.60,360.80 329.40,377.40 329.40,377.40
             327.30,390.00 325.00,400.30 323.70,402.20
             322.60,399.70 321.60,385.80 320.60,360.80 Z
           M 319.80,280.70
           C 320.40,262.10 322.30,242.40 323.70,234.10
             324.60,228.70 326.40,219.00 328.20,209.70
             329.20,204.20 330.30,198.90 331.00,194.70
             331.00,194.70 336.60,190.80 336.60,190.80
             336.10,214.20 335.30,255.30 335.10,273.30
             335.10,273.30 319.80,280.70 319.80,280.70 Z
           M 186.60,291.90
           C 187.30,313.40 188.30,335.90 189.60,356.10
             189.60,356.10 191.30,352.60 191.30,352.60
             191.70,337.60 192.10,315.20 192.10,298.20
             192.10,296.10 192.10,294.30 192.10,292.40
             192.10,292.40 186.60,291.90 186.60,291.90 Z
           M 192.00,280.70
           C 191.40,262.10 189.50,242.40 188.10,234.10
             187.40,229.80 186.00,222.90 184.70,215.60
             184.90,229.20 185.40,252.10 186.20,277.80
             186.20,277.80 192.00,280.70 192.00,280.70 Z
           M 186.80,361.50
           C 186.80,361.50 191.30,352.60 191.30,352.60
             191.70,337.60 192.10,315.20 192.10,298.20
             192.10,296.10 192.10,294.30 192.10,292.40
             192.10,292.40 176.80,290.70 176.80,290.70
             176.90,298.00 177.00,304.50 177.60,315.40
             178.10,324.70 179.30,345.60 180.50,360.70
             180.50,360.70 186.80,361.50 186.80,361.50 Z
           M 191.10,360.80
           C 191.10,360.80 182.30,377.40 182.30,377.40
             184.40,390.00 186.70,400.30 188.00,402.20
             189.20,399.70 190.20,385.80 191.10,360.80 Z
           M 192.00,280.70
           C 191.40,262.10 189.50,242.40 188.10,234.10
             187.20,228.70 185.40,219.00 183.60,209.70
             182.60,204.20 181.50,198.90 180.70,194.70
             180.70,194.70 175.10,190.80 175.10,190.80
             175.60,214.20 176.40,255.30 176.70,273.30
             176.70,273.30 192.00,280.70 192.00,280.70 Z
           M 255.90,467.60
           C 287.20,467.60 315.50,455.20 317.80,449.00
             318.20,447.80 318.80,445.10 318.80,439.50
             318.80,433.30 318.10,425.90 317.60,421.00
             317.60,421.00 317.20,418.10 317.20,418.10
             315.70,420.50 313.30,423.70 310.80,424.70
             275.60,439.20 236.10,439.20 200.90,424.70
             198.50,423.70 196.00,420.40 194.50,418.00
             194.50,418.00 194.10,420.90 194.10,420.90
             193.60,425.80 192.90,433.20 192.90,439.40
             192.90,439.40 192.90,439.40 192.90,439.40
             192.90,445.00 193.40,447.70 193.90,448.90
             196.30,455.20 224.60,467.60 255.90,467.60 Z
           M 182.10,159.00
           C 182.10,158.30 182.10,157.70 182.10,157.40
             184.50,154.20 187.50,151.50 190.90,149.50
             196.80,146.20 223.20,137.20 256.00,137.20
             291.40,137.20 315.00,146.10 321.10,149.50
             324.40,151.50 327.30,154.10 329.70,157.10
             329.70,157.30 329.70,158.10 329.70,159.00
             329.70,160.70 329.60,162.40 329.30,164.10
             328.70,166.90 324.80,186.70 321.10,205.80
             321.10,205.80 317.90,221.80 317.90,221.80
             309.80,220.60 277.10,215.90 255.90,215.90
             234.70,215.90 202.00,220.60 193.90,221.80
             193.90,221.80 190.70,205.70 190.70,205.70
             186.90,186.60 183.10,166.90 182.50,164.10
             182.20,162.50 182.10,160.70 182.10,159.00 Z
           M 329.40,164.20
           C 329.70,162.50 329.80,160.80 329.80,159.10
             329.80,158.20 329.80,157.40 329.80,157.20
             327.40,154.20 324.50,151.60 321.20,149.60
             315.60,146.50 295.40,138.80 265.00,137.50
             272.90,165.90 278.50,195.20 282.20,217.60
             297.90,219.10 312.90,221.30 318.00,222.00
             318.00,222.00 321.20,206.00 321.20,206.00
             324.90,186.80 328.80,167.00 329.40,164.20 Z
           M 329.80,159.00
           C 329.80,158.10 329.80,157.30 329.80,157.10
             327.40,154.10 324.50,151.50 321.20,149.50
             315.00,146.10 291.40,137.20 256.10,137.20
             223.20,137.20 196.80,146.20 191.00,149.50
             187.60,151.50 184.60,154.20 182.20,157.40
             182.20,157.70 182.20,158.30 182.20,159.00
             182.20,160.70 182.30,162.40 182.60,164.10
             182.80,164.80 183.10,166.70 183.70,169.40
             204.60,172.70 232.00,173.70 256.50,173.70
             281.90,173.70 313.40,171.60 328.30,170.50
             329.00,167.20 329.40,164.90 329.60,164.10
             329.70,162.40 329.80,160.70 329.80,159.00 Z
           M 182.10,159.00
           C 182.10,158.30 182.10,157.70 182.10,157.40
             184.50,154.20 187.50,151.50 190.90,149.50
             196.80,146.20 223.20,137.20 256.00,137.20
             291.40,137.20 315.00,146.10 321.10,149.50
             324.40,151.50 327.30,154.10 329.70,157.10
             329.70,157.30 329.70,158.10 329.70,159.00
             329.70,160.70 329.60,162.40 329.30,164.10
             328.70,166.90 324.80,186.70 321.10,205.80
             321.10,205.80 317.90,221.80 317.90,221.80
             309.80,220.60 277.10,215.90 255.90,215.90
             234.70,215.90 202.00,220.60 193.90,221.80
             193.90,221.80 190.70,205.70 190.70,205.70
             186.90,186.60 183.10,166.90 182.50,164.10
             182.20,162.50 182.10,160.70 182.10,159.00 Z
           M 319.50,224.20
           C 323.60,203.40 330.50,168.30 331.30,164.60
             331.70,162.10 331.80,159.50 331.70,156.90
             331.70,156.90 331.70,156.70 331.70,156.40
             329.10,152.90 325.90,150.00 322.20,147.80
             315.50,144.10 291.40,135.30 256.10,135.30
             223.80,135.30 196.60,144.10 190.00,147.80
             186.20,150.10 182.90,153.10 180.20,156.70
             180.20,156.90 180.20,156.90 180.20,156.90
             180.10,159.50 180.20,162.00 180.60,164.60
             181.40,168.30 188.30,203.40 192.40,224.20
             192.40,224.20 231.60,218.00 256.00,218.00
             280.40,218.00 319.50,224.20 319.50,224.20 Z
           M 189.90,147.80
           C 196.60,144.10 223.70,135.30 256.00,135.30
             291.30,135.30 315.50,144.10 322.10,147.80
             325.80,150.00 329.10,153.00 331.60,156.40
             331.50,153.90 330.60,143.10 322.40,138.70
             313.20,133.70 288.10,124.70 255.80,124.70
             223.50,124.70 198.40,133.60 189.20,138.70
             180.70,143.30 180.10,154.90 180.00,156.70
             182.80,153.10 186.10,150.10 189.90,147.80 Z
           M 317.80,449.00
           C 318.20,447.80 318.80,445.10 318.80,439.50
             318.80,433.30 318.10,425.90 317.60,421.00
             317.60,421.00 317.20,418.10 317.20,418.10
             315.70,420.50 313.30,423.70 310.80,424.70
             301.60,428.60 292.10,431.40 282.30,433.20
             280.60,441.10 277.10,452.60 269.60,466.90
             295.10,464.10 315.90,454.30 317.80,449.00 Z
           M 255.90,467.60
           C 287.20,467.60 315.50,455.20 317.80,449.00
             318.20,447.80 318.80,445.10 318.80,439.50
             318.80,433.30 318.10,425.90 317.60,421.00
             317.60,421.00 317.20,418.10 317.20,418.10
             315.70,420.50 313.30,423.70 310.80,424.70
             275.60,439.20 236.10,439.20 200.90,424.70
             198.50,423.70 196.00,420.40 194.50,418.00
             194.50,418.00 194.10,420.90 194.10,420.90
             193.60,425.80 192.90,433.20 192.90,439.40
             192.90,439.40 192.90,439.40 192.90,439.40
             192.90,445.00 193.40,447.70 193.90,448.90
             196.30,455.20 224.60,467.60 255.90,467.60 Z
           M 255.90,469.60
           C 286.90,469.60 316.80,457.60 319.70,449.70
             322.60,441.80 319.00,415.20 319.00,415.20
             319.00,415.20 315.00,423.00 310.90,424.70
             275.70,439.20 236.20,439.20 201.00,424.70
             196.90,423.00 192.90,415.20 192.90,415.20
             192.90,415.20 189.30,441.90 192.20,449.70
             195.00,457.60 225.00,469.60 255.90,469.60 Z
           M 191.90,358.50
           C 192.50,341.70 193.10,306.90 192.80,287.00
             192.50,267.10 190.30,243.40 188.80,234.00
             187.30,224.60 182.70,201.90 180.90,191.40
             179.10,180.90 175.90,164.50 175.50,163.30
             175.00,162.10 174.10,163.80 174.10,165.40
             174.10,165.40 174.10,173.70 174.10,173.70
             174.10,173.70 174.10,175.70 174.20,179.10
             174.20,179.10 175.80,178.50 175.80,178.50
             175.80,178.50 177.90,181.60 175.80,187.20
             175.80,187.20 174.40,187.50 174.40,187.50
             174.90,215.20 176.10,275.50 176.10,281.50
             176.10,293.40 176.10,300.20 176.90,315.50
             177.70,330.80 179.80,366.00 181.30,375.80
             182.80,385.60 186.20,403.60 188.20,403.10
             190.20,402.70 191.30,375.30 191.90,358.50 Z
           M 330.40,375.90
           C 331.90,366.10 334.00,330.80 334.80,315.60
             335.60,300.30 335.60,293.50 335.60,281.60
             335.60,275.50 336.80,215.20 337.30,187.50
             337.30,187.50 336.20,187.30 336.20,187.30
             334.10,181.70 336.20,178.60 336.20,178.60
             336.20,178.60 337.50,179.10 337.50,179.10
             337.60,175.70 337.60,173.80 337.60,173.80
             337.60,173.80 337.60,165.50 337.60,165.50
             337.60,163.80 336.70,162.20 336.20,163.40
             335.70,164.60 332.60,181.00 330.80,191.50
             328.90,202.00 324.40,224.60 322.90,234.10
             321.40,243.60 319.20,267.20 318.90,287.10
             318.60,307.00 319.30,341.80 319.80,358.60
             320.30,375.40 321.50,402.80 323.50,403.30
             325.60,403.70 328.90,385.70 330.40,375.90 Z
           M 335.80,179.60
           C 335.90,179.20 336.10,178.80 336.30,178.50
             336.30,178.50 342.60,181.00 342.60,181.00
             342.60,181.00 355.50,186.90 359.90,192.00
             356.80,189.90 352.40,186.90 350.00,185.60
             346.20,183.50 343.60,183.70 343.50,184.50
             343.40,185.10 343.60,189.60 343.70,191.90
             343.70,191.90 342.70,191.30 342.70,191.30
             342.70,191.30 342.30,188.50 342.30,188.50
             342.30,188.50 342.40,182.50 342.40,182.50
             342.40,182.50 335.80,179.60 335.80,179.60 Z
           M 176.20,179.60
           C 176.10,179.20 175.90,178.80 175.70,178.50
             175.70,178.50 169.40,181.00 169.40,181.00
             169.40,181.00 156.50,186.90 152.10,192.00
             155.20,189.90 159.60,186.90 162.00,185.60
             165.80,183.50 168.40,183.70 168.50,184.50
             168.60,185.10 168.40,189.60 168.30,191.90
             168.30,191.90 169.30,191.30 169.30,191.30
             169.30,191.30 169.70,188.50 169.70,188.50
             169.70,188.50 169.60,182.50 169.60,182.50
             169.60,182.50 176.20,179.60 176.20,179.60 Z
           M 327.10,468.50
           C 336.70,463.60 342.70,447.70 345.10,440.50
             347.50,433.30 349.10,416.90 349.10,406.00
             349.10,395.10 348.00,347.20 348.00,347.20
             348.00,347.20 348.50,236.40 348.50,223.00
             348.50,217.40 348.50,206.30 348.50,194.80
             348.50,194.80 342.70,191.30 342.70,191.30
             342.70,191.30 342.30,188.50 342.30,188.50
             342.30,188.50 336.20,187.20 336.20,187.20
             334.10,181.60 336.20,178.50 336.20,178.50
             336.20,178.50 342.50,181.00 342.50,181.00
             342.50,181.00 345.20,182.20 348.50,184.00
             348.60,172.00 348.60,161.50 348.80,158.60
             349.20,152.10 349.00,93.50 348.80,91.20
             348.60,89.70 347.90,88.30 347.00,87.10
             347.00,87.10 347.00,78.00 341.40,66.10
             335.80,54.30 329.80,47.40 314.20,40.40
             298.60,33.50 267.30,30.90 256.20,30.90
             245.10,30.90 213.80,33.50 198.20,40.40
             182.60,47.30 176.60,54.20 171.00,66.00
             165.40,77.80 165.40,87.00 165.40,87.00
             164.40,88.20 163.80,89.60 163.60,91.10
             163.40,93.40 163.20,152.00 163.60,158.50
             163.80,161.40 163.80,171.70 163.90,183.60
             167.00,182.00 169.30,180.90 169.30,180.90
             169.30,180.90 175.60,178.40 175.60,178.40
             175.60,178.40 177.70,181.50 175.60,187.10
             175.60,187.10 169.50,188.40 169.50,188.40
             169.50,188.40 169.10,191.20 169.10,191.20
             169.10,191.20 163.90,194.30 163.90,194.30
             163.90,205.90 163.90,217.20 163.90,222.90
             163.90,236.30 164.40,347.10 164.40,347.10
             164.40,347.10 163.40,395.00 163.30,405.90
             163.20,416.70 164.90,433.30 167.30,440.50
             169.70,447.70 175.70,463.70 185.30,468.50
             194.90,473.40 228.20,481.00 256.10,481.00
             284.00,481.00 317.50,473.40 327.10,468.50 Z
           M 346.40,349.00
           C 346.80,350.00 347.30,357.00 347.20,361.50
             347.10,366.10 346.70,374.20 345.70,374.20
             345.10,374.20 344.40,370.90 344.00,366.90
             343.80,367.00 343.50,367.00 343.20,366.90
             342.10,366.60 341.00,355.20 343.60,353.40
             343.70,353.40 343.90,353.40 344.00,353.50
             344.10,352.10 344.50,350.80 345.10,349.60
             345.80,348.40 346.40,349.00 346.40,349.00
             346.40,349.00 346.40,349.00 346.40,349.00 Z
           M 346.70,249.90
           C 347.10,250.90 347.60,257.90 347.50,262.40
             347.40,267.00 347.00,275.20 346.00,275.10
             345.40,275.10 344.70,271.80 344.30,267.80
             344.10,267.90 343.80,267.90 343.50,267.80
             342.40,267.40 341.30,256.10 343.90,254.30
             343.90,254.30 344.10,254.30 344.20,254.40
             344.30,253.00 344.70,251.70 345.30,250.50
             346.10,249.30 346.70,249.90 346.70,249.90
             346.70,249.90 346.70,249.90 346.70,249.90 Z
           M 333.40,58.80
           C 342.60,71.90 339.70,95.90 339.70,96.00
             336.60,73.00 330.80,60.30 322.50,52.70
             314.20,45.10 302.50,39.20 302.50,39.20
             309.20,40.50 324.10,45.60 333.40,58.80 Z
           M 178.80,58.80
           C 188.00,45.70 203.00,40.60 209.70,39.10
             209.70,39.10 197.90,45.00 189.60,52.60
             181.30,60.20 175.50,72.90 172.40,95.90
             172.50,95.90 169.50,71.90 178.80,58.80 Z
           M 164.50,262.50
           C 164.40,257.90 164.90,251.00 165.30,250.00
             165.30,250.00 165.90,249.40 166.60,250.60
             167.20,251.80 167.60,253.20 167.70,254.50
             167.90,254.40 168.00,254.40 168.10,254.40
             170.60,256.20 169.60,267.60 168.50,267.90
             168.30,268.00 168.00,268.00 167.70,267.90
             167.30,271.90 166.70,275.10 166.00,275.20
             165.00,275.20 164.60,267.00 164.50,262.50 Z
           M 164.80,361.50
           C 164.70,356.90 165.20,350.00 165.60,349.00
             165.60,349.00 166.20,348.40 166.90,349.60
             167.50,350.80 167.90,352.20 168.00,353.50
             168.10,353.40 168.20,353.40 168.30,353.40
             170.80,355.20 169.80,366.60 168.70,366.90
             168.50,367.00 168.20,367.00 167.90,366.90
             167.50,370.90 166.90,374.10 166.20,374.20
             165.30,374.30 164.80,366.10 164.80,361.50
             164.80,361.50 164.80,361.50 164.80,361.50 Z
           M 198.20,350.40
           C 197.80,337.10 197.40,285.70 195.70,262.60
             194.00,239.60 187.40,202.70 184.70,194.20
             182.00,185.60 177.30,166.80 176.90,153.40
             176.20,130.80 184.60,104.00 189.60,86.70
             193.70,72.70 205.00,50.00 215.80,46.90
             215.80,46.90 229.80,42.30 255.80,42.30
             281.80,42.30 295.80,46.90 295.80,46.90
             306.60,50.10 317.90,72.70 322.00,86.70
             327.00,104.00 335.40,130.70 334.70,153.40
             334.30,166.70 329.60,185.60 326.90,194.20
             324.30,202.70 317.60,239.60 315.90,262.60
             314.20,285.60 313.80,337.00 313.40,350.40
             312.90,367.20 312.10,414.60 312.30,429.80
             312.30,429.80 318.70,415.20 318.70,415.20
             318.70,415.20 322.00,429.60 321.40,443.20
             320.80,456.70 314.70,458.10 308.80,461.60
             302.80,465.00 285.20,473.20 260.60,473.20
             260.60,473.20 251.00,473.20 251.00,473.20
             226.40,473.20 208.80,465.10 202.80,461.60
             196.80,458.20 190.80,456.80 190.20,443.20
             189.60,429.70 192.90,415.20 192.90,415.20
             192.90,415.20 199.30,429.80 199.30,429.80
             199.60,414.50 198.70,367.10 198.20,350.40 Z
           M 182.60,463.30
           C 171.40,454.40 171.00,432.80 171.00,432.80
             171.00,432.80 171.30,432.80 171.30,432.80
             171.30,432.80 181.10,460.90 190.50,465.50
             199.90,470.00 219.40,476.40 261.00,476.40
             302.60,476.40 321.50,465.50 321.50,465.50
             321.50,465.50 338.80,444.60 338.80,444.60
             337.80,459.30 327.00,465.90 316.80,470.10
             306.50,474.30 279.60,479.60 259.80,479.60
             240.00,479.60 228.60,478.40 216.70,476.20
             204.80,474.00 193.80,472.30 182.60,463.30 Z
           M 327.10,468.50
           C 336.70,463.60 342.70,447.70 345.10,440.50
             347.50,433.30 349.10,416.90 349.10,406.00
             349.10,395.10 348.00,347.20 348.00,347.20
             348.00,347.20 348.50,236.40 348.50,223.00
             348.50,217.40 348.50,206.30 348.50,194.80
             348.50,194.80 343.50,191.80 343.50,191.80
             343.40,203.40 343.30,213.30 343.30,213.30
             343.30,213.30 346.10,193.80 346.10,193.80
             346.10,193.80 345.90,249.80 345.90,249.80
             346.10,249.70 346.40,249.70 346.50,249.90
             346.90,250.90 347.40,257.90 347.30,262.40
             347.20,267.00 346.80,275.20 345.80,275.10
             345.80,275.10 345.80,279.10 345.80,279.10
             345.80,279.10 344.80,348.20 344.80,348.20
             344.80,348.20 342.10,324.20 342.10,324.20
             342.10,324.20 340.90,374.00 340.80,386.60
             340.70,399.20 339.40,414.30 339.40,414.30
             339.40,414.30 338.40,451.10 322.60,460.90
             306.80,470.70 284.50,473.60 260.10,473.60
             260.10,473.60 251.60,473.60 251.60,473.60
             227.20,473.60 204.80,470.60 189.10,460.90
             173.40,451.10 172.30,414.30 172.30,414.30
             172.30,414.30 170.90,399.20 170.80,386.60
             170.70,374.00 169.50,324.20 169.50,324.20
             169.50,324.20 166.80,348.20 166.80,348.20
             166.80,348.20 165.80,279.10 165.80,279.10
             165.80,279.10 165.80,275.10 165.80,275.10
             164.80,275.20 164.40,267.00 164.30,262.40
             164.20,257.80 164.70,250.90 165.10,249.90
             165.30,249.70 165.50,249.70 165.70,249.80
             165.70,249.80 165.60,193.80 165.60,193.80
             165.60,193.80 168.40,213.30 168.40,213.30
             168.40,213.30 168.30,203.40 168.20,191.80
             168.20,191.80 163.90,194.40 163.90,194.40
             163.90,206.00 163.90,217.30 163.90,223.00
             163.90,236.40 164.40,347.20 164.40,347.20
             164.40,347.20 163.40,395.10 163.30,406.00
             163.20,416.80 164.90,433.30 167.30,440.50
             169.70,447.70 175.70,463.70 185.30,468.50
             194.90,473.40 228.20,481.00 256.10,481.00
             284.00,481.00 317.50,473.40 327.10,468.50 Z
           M 344.00,366.90
           C 343.80,367.00 343.50,367.00 343.20,366.90
             342.10,366.60 341.00,355.20 343.60,353.40
             343.70,353.40 343.90,353.40 344.00,353.50
             344.10,352.10 344.50,350.80 345.10,349.60
             345.80,348.40 346.40,349.00 346.40,349.00
             346.80,350.00 347.30,357.00 347.20,361.50
             347.10,366.10 346.70,374.20 345.70,374.20
             345.10,374.20 344.40,370.90 344.00,366.90
             344.00,366.90 344.00,366.90 344.00,366.90 Z
           M 164.80,361.50
           C 164.70,356.90 165.20,350.00 165.60,349.00
             165.60,349.00 166.20,348.40 166.90,349.60
             167.50,350.80 167.90,352.20 168.00,353.50
             168.10,353.40 168.20,353.40 168.30,353.40
             170.80,355.20 169.80,366.60 168.70,366.90
             168.50,367.00 168.20,367.00 167.90,366.90
             167.50,370.90 166.90,374.10 166.20,374.20
             165.30,374.30 164.80,366.10 164.80,361.50 Z
           M 182.60,463.30
           C 171.40,454.40 171.00,432.80 171.00,432.80
             171.00,432.80 171.30,432.80 171.30,432.80
             171.30,432.80 181.10,460.90 190.50,465.50
             199.90,470.00 219.40,476.40 261.00,476.40
             302.60,476.40 321.50,465.50 321.50,465.50
             321.50,465.50 338.80,444.60 338.80,444.60
             337.80,459.30 327.00,465.90 316.80,470.10
             306.50,474.30 279.60,479.60 259.80,479.60
             240.00,479.60 228.60,478.40 216.70,476.20
             204.80,474.00 193.80,472.30 182.60,463.30
             182.60,463.30 182.60,463.30 182.60,463.30 Z
           M 168.00,159.50
           C 167.80,146.30 171.10,103.40 172.50,96.00
             172.50,96.00 169.60,72.00 178.80,58.80
             188.00,45.70 203.00,40.60 209.70,39.10
             209.70,39.10 197.90,45.00 189.60,52.60
             181.30,60.20 175.50,72.90 172.40,95.90
             173.80,88.50 190.80,55.20 207.50,47.00
             207.50,47.00 216.30,43.60 230.60,42.40
             230.60,42.40 281.20,42.40 281.20,42.40
             295.50,43.50 304.30,47.00 304.30,47.00
             321.00,55.30 338.00,88.50 339.40,95.90
             340.80,103.30 344.10,146.30 343.90,159.40
             343.80,164.20 343.70,172.70 343.60,181.50
             344.60,182.00 346.50,182.90 348.50,184.00
             348.60,172.00 348.60,161.50 348.80,158.60
             349.20,152.10 349.00,93.50 348.80,91.20
             348.60,89.70 347.90,88.30 347.00,87.10
             347.00,87.10 347.00,78.00 341.40,66.10
             335.80,54.20 329.90,47.40 314.30,40.50
             298.70,33.60 267.40,31.00 256.30,31.00
             245.20,31.00 213.90,33.60 198.30,40.50
             182.70,47.40 176.70,54.30 171.10,66.10
             165.50,77.90 165.50,87.10 165.50,87.10
             164.50,88.30 163.90,89.70 163.70,91.20
             163.50,93.50 163.30,152.10 163.70,158.60
             163.90,161.50 163.90,171.80 164.00,183.70
             165.70,182.80 167.30,182.00 168.20,181.50
             168.20,172.70 168.10,164.30 168.00,159.50 Z
           M 333.40,58.80
           C 342.60,71.90 339.70,95.90 339.70,96.00
             336.60,73.00 330.80,60.30 322.50,52.70
             314.20,45.10 302.50,39.20 302.50,39.20
             309.20,40.50 324.10,45.60 333.40,58.80 Z
           M 228.00,46.40
           C 228.00,46.40 214.70,76.70 211.80,128.10
             211.70,128.10 216.90,85.80 228.00,46.40 Z
           M 322.00,86.80
           C 317.90,72.80 306.60,50.10 295.80,47.00
             295.80,47.00 281.80,42.40 255.80,42.40
             229.80,42.40 215.80,47.00 215.80,47.00
             205.00,50.20 193.70,72.80 189.60,86.80
             184.60,104.10 176.20,130.80 176.80,153.50
             176.80,153.50 334.70,153.50 334.70,153.50
             335.50,130.80 327.10,104.10 322.00,86.80 Z
           M 284.60,46.40
           C 284.60,46.40 297.90,76.70 300.80,128.10
             300.80,128.10 295.60,85.80 284.60,46.40 Z
           M 343.60,353.40
           C 343.70,353.30 345.50,353.50 345.60,359.80
             345.70,366.10 344.30,367.30 343.20,366.90
             342.20,366.60 341.10,355.30 343.60,353.40 Z
           M 343.90,254.40
           C 344.00,254.30 345.80,254.50 345.90,260.80
             346.00,267.10 344.60,268.30 343.50,267.90
             342.40,267.60 341.40,256.20 343.90,254.40 Z
           M 168.30,353.40
           C 168.20,353.30 166.40,353.50 166.30,359.80
             166.20,366.10 167.60,367.30 168.70,366.90
             169.80,366.60 170.80,355.30 168.30,353.40 Z
           M 168.10,254.40
           C 168.00,254.30 166.20,254.50 166.10,260.80
             166.00,267.10 167.40,268.30 168.50,267.90
             169.50,267.60 170.60,256.20 168.10,254.40 Z
           M 327.10,468.50
           C 336.70,463.60 342.70,447.70 345.10,440.50
             347.50,433.30 349.10,416.90 349.10,406.00
             349.10,395.10 348.00,347.20 348.00,347.20
             348.00,347.20 348.50,236.40 348.50,223.00
             348.50,217.40 348.50,206.30 348.50,194.80
             348.50,194.80 361.10,202.40 361.10,202.40
             361.10,202.40 363.20,199.30 361.10,193.90
             359.90,190.70 353.50,186.70 348.50,184.00
             348.60,172.00 348.60,161.50 348.80,158.60
             349.20,152.10 349.00,93.50 348.80,91.20
             348.60,89.70 347.90,88.30 347.00,87.10
             347.00,87.10 347.00,78.00 341.40,66.10
             335.80,54.20 329.80,47.40 314.20,40.40
             298.60,33.50 267.30,30.90 256.20,30.90
             245.10,30.90 213.80,33.50 198.20,40.40
             182.60,47.30 176.60,54.20 171.00,66.00
             165.40,77.80 165.40,87.00 165.40,87.00
             164.40,88.20 163.80,89.60 163.60,91.10
             163.40,93.40 163.20,152.00 163.60,158.50
             163.80,161.40 163.80,171.70 163.90,183.60
             158.90,186.30 152.00,190.50 150.70,193.90
             148.60,199.30 150.70,202.40 150.70,202.40
             150.70,202.40 164.00,194.40 164.00,194.40
             164.00,206.00 164.00,217.30 164.00,223.00
             164.00,236.40 164.50,347.20 164.50,347.20
             164.50,347.20 163.50,395.10 163.40,406.00
             163.30,416.90 165.00,433.30 167.40,440.50
             169.80,447.70 175.80,463.70 185.40,468.50
             195.00,473.40 228.30,481.00 256.20,481.00
             284.10,481.00 317.50,473.40 327.10,468.50 Z" />
</svg>
